<?xml version="1.0" encoding="utf-8"?>
<!-- Generator: Adobe Illustrator 22.1.0, SVG Export Plug-In . SVG Version: 6.00 Build 0)  -->
<svg version="1.1" id="Capa_1" xmlns="http://www.w3.org/2000/svg" xmlns:xlink="http://www.w3.org/1999/xlink" x="0px" y="0px"
	 viewBox="0 0 136 84.9" style="enable-background:new 0 0 136 84.9;" xml:space="preserve">
<style type="text/css">
	.st0{fill:#E63876;}
	.st1{fill:#FFFFFF;}
	.st2{font-family:'Sarabun-Thin';}
	.st3{font-size:12.5907px;}
</style>
<g>
	<g>
		<g>
			<ellipse class="st0" cx="68" cy="19.6" rx="19.1" ry="19.1"/>
			<g>
				<path class="st1" d="M74.2,15.7C74,12.5,71.3,9.9,68,9.9c-3.3,0-6,2.6-6.2,5.8v3.2v1c0,0.5,0.4,1,1,1c0.5,0,1-0.4,1-1v-1v-2.8
					c0-2.4,1.9-4.3,4.3-4.3s4.3,1.9,4.3,4.3l0,0v2.8v1c0,0.5,0.4,1,1,1c0.5,0,1-0.4,1-1v-1v-3.2H74.2z"/>
				<g>
					<path class="st1" d="M78.6,19.1c0-0.4-0.4-0.8-0.8-0.8h-1.6c-0.4,0-0.7,0.3-0.8,0.6l-1.5,7.5c-0.1,0.3-0.4,0.5-0.7,0.5H62.8
						c-0.3,0-0.6-0.3-0.7-0.5L60.5,19c-0.1-0.4-0.4-0.6-0.8-0.6h-1.6c-0.5,0-0.8,0.4-0.8,0.8c0,0.5,0.4,0.8,0.8,0.8h0.7
						c0.1,0,0.2,0.1,0.2,0.2l1.4,6.6c0.2,1,1.2,1.8,2.3,1.8h10.4c1.1,0,2.1-0.8,2.3-1.8l1.4-6.6c0-0.1,0.1-0.2,0.2-0.2h0.7
						C78.2,19.9,78.6,19.6,78.6,19.1z"/>
					<rect x="64.7" y="18.3" class="st1" width="6.6" height="1.6"/>
					<path class="st1" d="M72.3,22.1L72.3,22.1c0-0.3-0.2-0.5-0.5-0.5s-0.5,0.2-0.5,0.5l0,0v2.7l0,0c0,0.3,0.2,0.5,0.5,0.5
						s0.5-0.2,0.5-0.5l0,0V22.1z"/>
					<path class="st1" d="M69.8,22.1L69.8,22.1c0-0.3-0.2-0.5-0.5-0.5s-0.5,0.2-0.5,0.5l0,0v2.7l0,0c0,0.3,0.2,0.5,0.5,0.5
						s0.5-0.2,0.5-0.5l0,0V22.1z"/>
					<path class="st1" d="M67.2,22.1C67.2,22.1,67.3,22.1,67.2,22.1c0-0.3-0.2-0.5-0.5-0.5s-0.5,0.2-0.5,0.5l0,0v2.7l0,0
						c0,0.3,0.2,0.5,0.5,0.5s0.5-0.2,0.5-0.5l0,0V22.1z"/>
					<path class="st1" d="M64.7,22.1L64.7,22.1c0-0.3-0.2-0.5-0.5-0.5c-0.3,0-0.5,0.2-0.5,0.5l0,0v2.7l0,0c0,0.3,0.2,0.5,0.5,0.5
						c0.3,0,0.5-0.2,0.5-0.5l0,0V22.1z"/>
				</g>
			</g>
		</g>
		<g>
			<g>
				<path class="st1" d="M85.9,59.9L85.9,59.9h-0.3c-0.4,0-0.6-0.2-0.6-0.6v-6.5c0-2.9-1-5.2-5.3-5.2c-1.2,0-4.4,0.4-4.4,2.3v0.6
					c0,0.5,0.4,0.9,0.9,0.9s0.9-0.4,0.9-0.9v-0.2c0-1,2-1.2,2.7-1.2c2.5,0,3.5,1,3.5,3.8v0.2h-0.8c-2.4,0-8.3,0.2-8.3,4.7
					c0,2.7,2.4,4,4.6,4c3.4,0,4.5-2.9,4.5-2.9h0.1c0,0,0,0.4,0,1c0,1.1,0.5,1.6,1.6,1.6h1.1l0,0c0.4,0,0.8-0.4,0.8-0.8
					C86.7,60.3,86.3,59.9,85.9,59.9z M83.1,55.2c0,2.4-1.6,5.1-4.2,5.1c-2,0-3-1.3-3-2.6c0-3.1,4.3-3.1,6.4-3.1h0.8
					C83.1,54.6,83.1,55.2,83.1,55.2z"/>
				<path class="st1" d="M54.5,59.9L54.5,59.9h-0.3c-0.4,0-0.6-0.2-0.6-0.6v-6.5c0-2.9-1-5.2-5.3-5.2c-1.2,0-4.4,0.4-4.4,2.3v0.6
					c0,0.5,0.4,0.9,0.9,0.9s0.9-0.4,0.9-0.9v-0.2c0-1,2-1.2,2.7-1.2c2.5,0,3.5,1,3.5,3.8v0.2h-0.8c-2.4,0-8.3,0.2-8.3,4.7
					c0,2.7,2.4,4,4.6,4c3.4,0,4.5-2.9,4.5-2.9H52c0,0,0,0.4,0,1c0,1.1,0.5,1.6,1.6,1.6h1.1l0,0c0.4,0,0.8-0.4,0.8-0.8
					C55.3,60.3,54.9,59.9,54.5,59.9z M51.7,55.2c0,2.4-1.6,5.1-4.2,5.1c-2,0-3-1.3-3-2.6c0-3.1,4.3-3.1,6.4-3.1h0.8V55.2z"/>
				<path class="st1" d="M42.4,60.7c0-0.5-0.4-0.8-0.8-0.8h-0.1h-1c-0.4,0-0.6-0.2-0.6-0.6v-6.6c0-3.4-1.2-5.4-4.6-5.4
					c-3.2,0-5,2.2-5.5,3.5h-0.1c0,0,0.1-0.4,0.1-1v-0.6c0-1-0.5-1.5-1.7-1.5h-1.9l0,0l0,0c-0.4,0-0.8,0.4-0.8,0.8s0.4,0.8,0.8,0.8
					c0,0,0,0,0.1,0h1.1c0.4,0,0.6,0.2,0.6,0.6v11l0,0l0,0l0,0l0,0c0,0.5,0.4,0.9,0.9,0.9s0.9-0.4,0.9-0.9l0,0l0,0l0,0l0,0v-6
					c0-0.7,0.1-1.3,0.2-1.9c0.6-2.3,2.7-3.9,5-3.9c2.7,0,3,1.9,3,4.1v6.6c0,1.2,0.5,1.7,1.7,1.7h2l0,0C42,61.5,42.4,61.1,42.4,60.7z
					"/>
				<path class="st1" d="M25.5,59.9L25.5,59.9h-0.3c-0.4,0-0.6-0.2-0.6-0.6v-6.5c0-2.9-1-5.2-5.3-5.2c-1.2,0-4.4,0.4-4.4,2.3v0.6
					c0,0.5,0.4,0.9,0.9,0.9s0.9-0.4,0.9-0.9v-0.2c0-1,2-1.2,2.7-1.2c2.5,0,3.5,1,3.5,3.8v0.2H22c-2.4,0-8.3,0.2-8.3,4.7
					c0,2.7,2.4,4,4.6,4c3.4,0,4.5-2.9,4.5-2.9h0.1c0,0,0,0.4,0,1c0,1.1,0.5,1.6,1.6,1.6h1.1l0,0c0.4,0,0.8-0.4,0.8-0.8
					C26.3,60.3,26,59.9,25.5,59.9z M22.8,55.2c0,2.4-1.6,5.1-4.2,5.1c-2,0-3-1.3-3-2.6c0-3.1,4.3-3.1,6.4-3.1h0.8
					C22.8,54.6,22.8,55.2,22.8,55.2z"/>
				<path class="st1" d="M72.7,60c-1,0-3.1-0.4-3.1-3.6v-6.9h2.7l0,0c0.4,0,0.8-0.3,0.8-0.8c0-0.4-0.3-0.8-0.8-0.8l0,0h-2.7v-3.1
					c0-0.5-0.4-0.9-0.9-0.9s-0.9,0.4-0.9,0.9l0,0v3.1h-1.1l0,0l0,0c-0.4,0-0.8,0.3-0.8,0.8c0,0.4,0.3,0.8,0.8,0.8l0,0l0,0h1.1v7.1
					c0,4.5,3.2,5.1,4.7,5.1c0.1,0,0.1,0,0.2,0c0.5,0,0.8-0.4,0.8-0.8C73.5,60.4,73.2,60,72.7,60z"/>
				<path class="st1" d="M57.6,51.2c0-1.3,1.1-2,3-2c0.9,0,2.4,0.4,2.4,1.4v0.2c0,0.5,0.4,0.9,0.9,0.9s0.9-0.4,0.9-0.9V50
					c0-1.9-2.8-2.5-4.1-2.5c-2.7,0-4.8,1.2-4.8,3.7c0,4.4,7.6,3.8,7.6,6.8c0,1.4-1.4,2.2-2.9,2.2c-1.7,0-3-0.8-3.6-1.4l0,0
					c-0.1-0.1-0.3-0.2-0.5-0.2c-0.5,0-0.8,0.4-0.8,0.8c0,0.3,0.1,0.5,0.3,0.6l0,0c0.8,0.7,2.3,1.8,4.7,1.8c2.7,0,4.8-1.5,4.8-3.8
					C65.3,53.5,57.6,54.2,57.6,51.2z"/>
				<path class="st1" d="M12.3,59.5c0-0.5-0.4-0.8-0.8-0.8c-0.2,0-0.4,0.1-0.6,0.2c-0.7,0.6-2,1.2-3.6,1.2C4.4,60.1,2,58,2,54.7
					s2.4-5.5,5.3-5.5c1.1,0,3.1,0.5,3.1,1.7V51c0,0.5,0.4,0.9,0.9,0.9s0.9-0.4,0.9-0.9v-0.5c0-2.2-3.3-2.9-4.8-2.9
					c-4.1,0-7.2,3-7.2,7.1c0,4.2,3.1,7.1,7.1,7.1c2.3,0,3.9-1,4.7-1.6C12.1,60.1,12.3,59.8,12.3,59.5z"/>
			</g>
			<g>
				<g>
					<path class="st0" d="M135.2,59.9L135.2,59.9h-0.3c-0.4,0-0.6-0.2-0.6-0.6v-6.5c0-2.9-1-5.2-5.3-5.2c-1.2,0-4.4,0.4-4.4,2.3v0.6
						c0,0.5,0.4,0.9,0.9,0.9s0.9-0.4,0.9-0.9v-0.2c0-1,2-1.2,2.7-1.2c2.5,0,3.5,1,3.5,3.8v0.2h-0.8c-2.4,0-8.3,0.2-8.3,4.7
						c0,2.7,2.4,4,4.6,4c3.4,0,4.5-2.9,4.5-2.9h0.1c0,0,0,0.4,0,1c0,1.1,0.5,1.6,1.6,1.6h1.1l0,0c0.4,0,0.8-0.4,0.8-0.8
						C136,60.3,135.6,59.9,135.2,59.9z M132.4,55.2c0,2.4-1.6,5.1-4.2,5.1c-2,0-3-1.3-3-2.6c0-3.1,4.3-3.1,6.4-3.1h0.8V55.2z"/>
					<path class="st0" d="M114.3,51.2c0-1.3,1.1-2,3-2c0.9,0,2.4,0.4,2.4,1.4v0.2c0,0.5,0.4,0.9,0.9,0.9s0.9-0.4,0.9-0.9V50
						c0-1.9-2.8-2.5-4.1-2.5c-2.7,0-4.8,1.2-4.8,3.7c0,4.4,7.6,3.8,7.6,6.8c0,1.4-1.4,2.2-2.9,2.2c-1.7,0-3-0.8-3.6-1.4l0,0
						c-0.1-0.1-0.3-0.2-0.5-0.2c-0.5,0-0.8,0.4-0.8,0.8c0,0.3,0.1,0.5,0.3,0.6l0,0c0.8,0.7,2.3,1.8,4.7,1.8c2.7,0,4.8-1.5,4.8-3.8
						C121.9,53.5,114.3,54.2,114.3,51.2z"/>
					<path class="st0" d="M103.5,47.6c4,0,7.2,3,7.2,7.1s-3.2,7.2-7.2,7.2s-7.2-3.1-7.2-7.2S99.5,47.6,103.5,47.6z M103.5,60.2
						c2.9,0,5.3-2.4,5.3-5.5s-2.4-5.4-5.3-5.4s-5.3,2.3-5.3,5.4S100.6,60.2,103.5,60.2z"/>
					<path class="st0" d="M95.1,47.8c-2.1,0-3.7,1.6-4.3,3.6h-0.1c0,0,0.1-0.5,0.1-1v-0.9c0-1.1-0.5-1.5-1.7-1.5h-1.2l0,0l0,0
						c-0.4,0-0.8,0.4-0.8,0.8s0.4,0.8,0.8,0.8l0,0l0,0h0.5c0.4,0,0.6,0.2,0.6,0.6v10.5c0,0.5,0.4,0.9,0.9,0.9s0.9-0.4,0.9-0.9v-4.8
						c0-0.9,0.1-1.8,0.4-2.7c0.6-2,2-3.5,3.9-3.5c0.5,0,0.9-0.4,0.9-0.9C96,48.2,95.6,47.8,95.1,47.8z"/>
				</g>
			</g>
		</g>
	</g>
	<text transform="matrix(1 0 0 1 17.1821 78.2346)" class="st1 st2 st3">Si es único, está aquí.</text>
</g>
</svg>
