<?xml version="1.0" encoding="UTF-8"?>
<svg width="223px" height="37px" viewBox="0 0 223 37" version="1.1" xmlns="http://www.w3.org/2000/svg" xmlns:xlink="http://www.w3.org/1999/xlink">
    <!-- Generator: Sketch 54.1 (76490) - https://sketchapp.com -->
    <title>logo_horizaontal-05</title>
    <desc>Created with Sketch.</desc>
    <g id="Symbols" stroke="none" stroke-width="1" fill="none" fill-rule="evenodd">
        <g id="multi-colores-v1-selection" transform="translate(-28.000000, -12.000000)" fill-rule="nonzero">
            <g id="logo_horizaontal-05" transform="translate(28.000000, 12.000000)">
                <g id="Group">
                    <ellipse id="Oval" fill="#E63976" transform="translate(18.463725, 18.507229) rotate(-89.813888) translate(-18.463725, -18.507229) " cx="18.4637251" cy="18.5072285" rx="18.2574744" ry="18.3577881"></ellipse>
                    <g transform="translate(6.708791, 7.885246)" fill="#FAF7F5">
                        <path d="M18.5203297,6.49016393 C18.2967033,2.97213115 15.3489011,0.181967213 11.7505495,0.181967213 C8.1521978,0.181967213 5.2043956,2.97213115 4.98076923,6.49016393 L4.98076923,9.98797814 L4.98076923,11.0797814 C4.98076923,11.6459016 5.44835165,12.1311475 6.03791209,12.1311475 C6.60714286,12.1311475 7.09505495,11.6661202 7.09505495,11.0797814 L7.09505495,9.98797814 L7.09505495,6.93497268 C7.09505495,4.36721311 9.18901099,2.28469945 11.7708791,2.28469945 C14.3527473,2.28469945 16.4467033,4.36721311 16.4467033,6.93497268 L16.4467033,6.93497268 L16.4467033,9.98797814 L16.4467033,11.0797814 C16.4467033,11.6459016 16.9142857,12.1311475 17.5038462,12.1311475 C18.0730769,12.1311475 18.560989,11.6661202 18.560989,11.0797814 L18.560989,9.98797814 L18.560989,6.49016393 L18.5203297,6.49016393 Z" id="Path"></path>
                        <g transform="translate(0.000000, 9.300546)">
                            <path d="M23.3181319,0.889617486 C23.3181319,0.404371585 22.9115385,0 22.4236264,0 L20.7159341,0 C20.289011,0 19.9230769,0.283060109 19.8417582,0.707650273 L18.1340659,8.77486339 C18.0730769,9.07814208 17.7071429,9.36120219 17.4021978,9.36120219 L6.0989011,9.36120219 C5.79395604,9.36120219 5.42802198,9.07814208 5.36703297,8.77486339 L3.65934066,0.707650273 C3.57802198,0.303278689 3.21208791,0 2.78516484,0 L1.07747253,0 C0.58956044,0 0.182967033,0.404371585 0.182967033,0.889617486 C0.182967033,1.37486339 0.58956044,1.77923497 1.07747253,1.77923497 L1.87032967,1.77923497 C1.97197802,1.77923497 2.07362637,1.86010929 2.09395604,1.96120219 L3.61868132,9.13879781 C3.86263736,10.2710383 4.94010989,11.1404372 6.0989011,11.1404372 L17.4021978,11.1404372 C18.560989,11.1404372 19.6384615,10.2710383 19.8824176,9.13879781 L21.4071429,1.96120219 C21.4274725,1.86010929 21.5291209,1.77923497 21.6307692,1.77923497 L22.4236264,1.77923497 C22.9115385,1.77923497 23.3181319,1.37486339 23.3181319,0.889617486 Z" id="Path"></path>
                            <rect id="Rectangle" x="8.1521978" y="0" width="7.21703297" height="1.77923497"></rect>
                            <path d="M16.467033,4.12459016 C16.467033,4.12459016 16.467033,4.10437158 16.467033,4.10437158 C16.467033,3.8010929 16.2230769,3.55846995 15.9181319,3.55846995 C15.6131868,3.55846995 15.3692308,3.8010929 15.3692308,4.10437158 C15.3692308,4.10437158 15.3692308,4.12459016 15.3692308,4.12459016 L15.3692308,7.05628415 C15.3692308,7.05628415 15.3692308,7.07650273 15.3692308,7.07650273 C15.3692308,7.37978142 15.6131868,7.62240437 15.9181319,7.62240437 C16.2230769,7.62240437 16.467033,7.37978142 16.467033,7.07650273 C16.467033,7.07650273 16.467033,7.05628415 16.467033,7.05628415 L16.467033,4.12459016 Z" id="Path"></path>
                            <path d="M13.6818681,4.12459016 C13.6818681,4.12459016 13.6818681,4.10437158 13.6818681,4.10437158 C13.6818681,3.8010929 13.4379121,3.55846995 13.132967,3.55846995 C12.828022,3.55846995 12.5840659,3.8010929 12.5840659,4.10437158 C12.5840659,4.10437158 12.5840659,4.12459016 12.5840659,4.12459016 L12.5840659,7.05628415 C12.5840659,7.05628415 12.5840659,7.07650273 12.5840659,7.07650273 C12.5840659,7.37978142 12.828022,7.62240437 13.132967,7.62240437 C13.4379121,7.62240437 13.6818681,7.37978142 13.6818681,7.07650273 C13.6818681,7.07650273 13.6818681,7.05628415 13.6818681,7.05628415 L13.6818681,4.12459016 Z" id="Path"></path>
                            <path d="M10.917033,4.12459016 C10.917033,4.12459016 10.917033,4.10437158 10.917033,4.10437158 C10.917033,3.8010929 10.6730769,3.55846995 10.3681319,3.55846995 C10.0631868,3.55846995 9.81923077,3.8010929 9.81923077,4.10437158 C9.81923077,4.10437158 9.81923077,4.12459016 9.81923077,4.12459016 L9.81923077,7.05628415 C9.81923077,7.05628415 9.81923077,7.07650273 9.81923077,7.07650273 C9.81923077,7.37978142 10.0631868,7.62240437 10.3681319,7.62240437 C10.6730769,7.62240437 10.917033,7.37978142 10.917033,7.07650273 C10.917033,7.07650273 10.917033,7.05628415 10.917033,7.05628415 L10.917033,4.12459016 Z" id="Path"></path>
                            <path d="M8.1521978,4.12459016 C8.1521978,4.12459016 8.1521978,4.10437158 8.1521978,4.10437158 C8.1521978,3.8010929 7.90824176,3.55846995 7.6032967,3.55846995 C7.29835165,3.55846995 7.0543956,3.8010929 7.0543956,4.10437158 C7.0543956,4.10437158 7.0543956,4.12459016 7.0543956,4.12459016 L7.0543956,7.05628415 C7.0543956,7.05628415 7.0543956,7.07650273 7.0543956,7.07650273 C7.0543956,7.37978142 7.29835165,7.62240437 7.6032967,7.62240437 C7.90824176,7.62240437 8.1521978,7.37978142 8.1521978,7.07650273 C8.1521978,7.07650273 8.1521978,7.05628415 8.1521978,7.05628415 L8.1521978,4.12459016 Z" id="Path"></path>
                        </g>
                    </g>
                </g>
                <g id="Group" transform="translate(47.000000, 4.000000)">
                    <g fill="#43434C">
                        <path d="M110.616159,21.4583333 L110.616159,21.4583333 L110.192342,21.4583333 C109.707981,21.4583333 109.425436,21.2083333 109.425436,20.6666667 L109.425436,12 C109.425436,8.125 108.093441,5.0625 102.563642,5.0625 C101.029829,5.0625 96.8522072,5.60416667 96.8522072,8.125 L96.8522072,8.95833333 C96.8522072,9.60416667 97.3567509,10.125 97.9823851,10.125 C98.6080193,10.125 99.112563,9.60416667 99.112563,8.95833333 L99.112563,8.70833333 C99.112563,7.375 101.655463,7.125 102.523278,7.125 C105.732176,7.125 107.04399,8.45833333 107.04399,12.2291667 L107.04399,12.4375 L106.075266,12.4375 C103.048004,12.4375 95.3587579,12.6458333 95.3587579,18.6458333 C95.3587579,22.25 98.3860201,24 101.312373,24 C105.691813,24 107.16508,20.0833333 107.124717,20.0833333 L107.185262,20.0833333 C107.185262,20.0833333 107.144899,20.625 107.144899,21.4166667 C107.144899,22.8958333 107.730169,23.5625 109.223619,23.5625 L110.575796,23.5625 L110.575796,23.5625 C111.140885,23.5625 111.605065,23.0833333 111.605065,22.5 C111.625247,21.9375 111.181248,21.4583333 110.616159,21.4583333 Z M107.064172,15.2083333 C107.064172,18.3333333 105.045997,21.9375 101.695827,21.9375 C99.0923812,21.9375 97.8007494,20.2083333 97.8007494,18.5208333 C97.8007494,14.4583333 103.310367,14.3958333 106.055084,14.3958333 L107.064172,14.3958333 L107.064172,15.2083333 Z" id="Shape"></path>
                        <path d="M70.1315733,21.4583333 L70.1315733,21.4583333 L69.7077566,21.4583333 C69.2233946,21.4583333 68.9408502,21.2083333 68.9408502,20.6666667 L68.9408502,12 C68.9408502,8.125 67.6088548,5.0625 62.0790559,5.0625 C60.5452431,5.0625 56.3676213,5.60416667 56.3676213,8.125 L56.3676213,8.95833333 C56.3676213,9.60416667 56.872165,10.125 57.4977992,10.125 C58.1234334,10.125 58.6279771,9.60416667 58.6279771,8.95833333 L58.6279771,8.70833333 C58.6279771,7.375 61.1708773,7.125 62.0386925,7.125 C65.2475903,7.125 66.5594039,8.45833333 66.5594039,12.2291667 L66.5594039,12.4375 L65.59068,12.4375 C62.5634179,12.4375 54.874172,12.6458333 54.874172,18.6458333 C54.874172,22.25 57.9014342,24 60.8277876,24 C65.2072268,24 66.6804944,20.0833333 66.6401309,20.0833333 L66.7006762,20.0833333 C66.7006762,20.0833333 66.6603127,20.625 66.6603127,21.4166667 C66.6603127,22.8958333 67.2455834,23.5625 68.7390327,23.5625 L70.0912098,23.5625 L70.0912098,23.5625 C70.6562987,23.5625 71.1204789,23.0833333 71.1204789,22.5 C71.1608424,21.9375 70.6966622,21.4583333 70.1315733,21.4583333 Z M66.5795857,15.2083333 C66.5795857,18.3333333 64.5614109,21.9375 61.2112408,21.9375 C58.6077953,21.9375 57.3161635,20.2083333 57.3161635,18.5208333 C57.3161635,14.4583333 62.8257806,14.3958333 65.5704983,14.3958333 L66.5795857,14.3958333 L66.5795857,15.2083333 Z" id="Shape"></path>
                        <path d="M32.876067,21.4583333 L32.876067,21.4583333 L32.4522503,21.4583333 C31.9678884,21.4583333 31.6853439,21.2083333 31.6853439,20.6666667 L31.6853439,12 C31.6853439,8.125 30.3533486,5.0625 24.8235497,5.0625 C23.2897369,5.0625 19.1121151,5.60416667 19.1121151,8.125 L19.1121151,8.95833333 C19.1121151,9.60416667 19.6166588,10.125 20.2422929,10.125 C20.8679271,10.125 21.3724708,9.60416667 21.3724708,8.95833333 L21.3724708,8.70833333 C21.3724708,7.375 23.915371,7.125 24.7831862,7.125 C27.9920841,7.125 29.3038977,8.45833333 29.3038977,12.2291667 L29.3038977,12.4375 L28.3351738,12.4375 C25.3079116,12.4375 17.6186657,12.6458333 17.6186657,18.6458333 C17.6186657,22.25 20.6459279,24 23.5722813,24 C27.9517206,24 29.4249882,20.0833333 29.3846247,20.0833333 L29.4451699,20.0833333 C29.4451699,20.0833333 29.4048064,20.625 29.4048064,21.4166667 C29.4048064,22.8958333 29.9900771,23.5625 31.4835264,23.5625 L32.8357035,23.5625 L32.8357035,23.5625 C33.4007925,23.5625 33.8649727,23.0833333 33.8649727,22.5 C33.9053361,21.9375 33.4411559,21.4583333 32.876067,21.4583333 Z M29.3240794,15.2083333 C29.3240794,18.3333333 27.3059046,21.9375 23.9557345,21.9375 C21.3522891,21.9375 20.0606572,20.2083333 20.0606572,18.5208333 C20.0606572,14.4583333 25.5702743,14.3958333 28.314992,14.3958333 L29.3240794,14.3958333 L29.3240794,15.2083333 L29.3240794,15.2083333 Z" id="Shape"></path>
                        <path d="M93.6231276,21.5208333 C92.2911323,21.5208333 89.6876868,20.9791667 89.6876868,16.75 L89.6876868,7.54166667 L93.1993109,7.54166667 L93.1993109,7.54166667 C93.7442181,7.54166667 94.1882165,7.08333333 94.1882165,6.52083333 C94.1882165,5.95833333 93.7442181,5.5 93.1993109,5.5 L93.1993109,5.5 L89.6876868,5.5 L89.6876868,1.39583333 C89.6876868,0.729166667 89.1629614,0.1875 88.5171454,0.1875 C87.8713295,0.1875 87.3466041,0.729166667 87.3466041,1.39583333 L87.3466041,1.39583333 L87.3466041,5.5 L85.8935182,5.5 L85.8935182,5.5 C85.8935182,5.5 85.8935182,5.5 85.8935182,5.5 C85.3486111,5.5 84.9046126,5.95833333 84.9046126,6.52083333 C84.9046126,7.08333333 85.3486111,7.54166667 85.8935182,7.54166667 C85.8935182,7.54166667 85.8935182,7.54166667 85.8935182,7.54166667 L85.8935182,7.54166667 L87.3264223,7.54166667 L87.3264223,17 C87.3264223,23.0416667 91.4031354,23.7291667 93.4213101,23.7291667 C93.4818554,23.7291667 93.5625824,23.7291667 93.6231276,23.7291667 C94.2083983,23.7291667 94.6927602,23.25 94.6927602,22.625 C94.6927602,22 94.2083983,21.5208333 93.6231276,21.5208333 Z" id="Path"></path>
                        <path d="M74.2486498,9.8125 C74.2486498,8.04166667 75.7017356,7.1875 78.1437271,7.1875 C79.2940867,7.1875 81.1709893,7.6875 81.1709893,9.02083333 L81.1709893,9.35416667 C81.1709893,10 81.675533,10.5 82.2809854,10.5 C82.8864378,10.5 83.3909815,9.97916667 83.3909815,9.35416667 L83.3909815,8.33333333 C83.3909815,5.79166667 79.8389939,5.0625 78.0630001,5.0625 C74.551376,5.0625 71.8268401,6.6875 71.8268401,9.95833333 C71.8268401,15.7708333 81.6351695,15.0625 81.6351695,19.0208333 C81.6351695,20.9166667 79.8995392,21.8958333 77.9419096,21.8958333 C75.7420991,21.8958333 74.1477411,20.7708333 73.2799259,19.9791667 L73.2799259,19.9791667 C73.0982902,19.8125 72.8561092,19.7291667 72.5937465,19.7291667 C72.0084758,19.7291667 71.5241139,20.2291667 71.5241139,20.8333333 C71.5241139,21.1666667 71.6855679,21.4791667 71.9075671,21.6875 L71.9075671,21.6875 C72.876291,22.625 74.8541022,24.0416667 77.9015461,24.0416667 C81.3929885,24.0416667 84.0367975,22 84.0367975,18.9791667 C84.0569792,12.9375 74.2486498,13.875 74.2486498,9.8125 Z" id="Path"></path>
                        <path d="M15.8224902,20.8958333 C15.8224902,20.2916667 15.35831,19.8125 14.7730393,19.8125 C14.4904949,19.8125 14.2281321,19.9375 14.0263147,20.125 C13.0979543,20.8541667 11.5035962,21.7708333 9.34414919,21.7708333 C5.65088936,21.7708333 2.48235497,19 2.48235497,14.5416667 C2.48235497,10.1666667 5.50961712,7.25 9.2634222,7.25 C10.716508,7.25 13.2594082,7.95833333 13.2594082,9.47916667 L13.2594082,9.625 C13.2594082,10.25 13.7639519,10.7708333 14.3694044,10.7708333 C14.9748568,10.7708333 15.4794005,10.25 15.4794005,9.625 L15.4794005,8.89583333 C15.4794005,5.91666667 11.2412335,5.04166667 9.24324045,5.04166667 C4.01616779,5.04166667 0.0201817477,9 0.0201817477,14.5208333 C0.0201817477,20.125 3.99598605,23.9791667 9.20287695,23.9791667 C12.1897756,23.9791667 14.2281321,22.6666667 15.277583,21.8125 C15.6206727,21.6458333 15.8224902,21.2916667 15.8224902,20.8958333 Z" id="Path"></path>
                    </g>
                    <g transform="translate(112.008700, 5.000000)" fill="#E63976">
                        <path d="M62.0588742,16.4583333 L62.0588742,16.4583333 L61.6350575,16.4583333 C61.1506956,16.4583333 60.8681511,16.2083333 60.8681511,15.6666667 L60.8681511,7 C60.8681511,3.125 59.5361557,0.0625 54.0063569,0.0625 C52.472544,0.0625 48.2949223,0.604166667 48.2949223,3.125 L48.2949223,3.95833333 C48.2949223,4.60416667 48.799466,5.125 49.4251001,5.125 C50.0507343,5.125 50.555278,4.60416667 50.555278,3.95833333 L50.555278,3.70833333 C50.555278,2.375 53.0981782,2.125 53.9659934,2.125 C57.1748913,2.125 58.4867049,3.45833333 58.4867049,7.22916667 L58.4867049,7.4375 L57.517981,7.4375 C54.4907188,7.4375 46.8014729,7.64583333 46.8014729,13.6458333 C46.8014729,17.25 49.8287351,19 52.7550885,19 C57.1345278,19 58.6077953,15.0833333 58.5674318,15.0833333 L58.6279771,15.0833333 C58.6279771,15.0833333 58.5876136,15.625 58.5876136,16.4166667 C58.5876136,17.8958333 59.1728843,18.5625 60.6663336,18.5625 L62.0185107,18.5625 L62.0185107,18.5625 C62.5835996,18.5625 63.0477798,18.0833333 63.0477798,17.5 C63.0881433,16.9375 62.6239631,16.4583333 62.0588742,16.4583333 Z M58.5068866,10.2083333 C58.5068866,13.3333333 56.4887118,16.9375 53.1385417,16.9375 C50.5350963,16.9375 49.2434644,15.2083333 49.2434644,13.5208333 C49.2434644,9.45833333 54.7530815,9.39583333 57.4977992,9.39583333 L58.5068866,9.39583333 L58.5068866,10.2083333 L58.5068866,10.2083333 Z" id="Shape"></path>
                        <path d="M35.1364228,4.8125 C35.1364228,3.04166667 36.5895086,2.1875 39.0315001,2.1875 C40.1818597,2.1875 42.0587622,2.6875 42.0587622,4.02083333 L42.0587622,4.35416667 C42.0587622,5 42.5633059,5.5 43.1687583,5.5 C43.7742108,5.5 44.2787545,4.97916667 44.2787545,4.35416667 L44.2787545,3.33333333 C44.2787545,0.791666667 40.7267669,0.0625 38.9507731,0.0625 C35.439149,0.0625 32.714613,1.6875 32.714613,4.95833333 C32.714613,10.7708333 42.5431242,10.0625 42.5431242,14.0208333 C42.5431242,15.9166667 40.8074939,16.8958333 38.8498643,16.8958333 C36.6500538,16.8958333 35.0556958,15.7708333 34.1878806,14.9791667 L34.1878806,14.9791667 C34.0062449,14.8125 33.7640639,14.7291667 33.5017012,14.7291667 C32.9164305,14.7291667 32.4320686,15.2291667 32.4320686,15.8333333 C32.4320686,16.1666667 32.5935225,16.4791667 32.8155218,16.6875 L32.8155218,16.6875 C33.7842457,17.625 35.7620569,19.0416667 38.8095008,19.0416667 C42.3009432,19.0416667 44.9447521,17 44.9447521,13.9791667 C44.9649339,7.9375 35.1364228,8.875 35.1364228,4.8125 Z" id="Path"></path>
                        <path d="M21.1908351,0.0625 C26.316999,0.0625 30.4542573,4.08333333 30.4542573,9.4375 C30.4542573,14.8958333 26.316999,19 21.2311986,19 C16.1050347,19 11.9677764,14.8958333 11.9677764,9.4375 C11.9677764,4.08333333 16.1050347,0.0625 21.1908351,0.0625 Z M21.2110168,16.8125 C24.9446402,16.8125 27.9920841,13.6458333 27.9920841,9.4375 C27.9920841,5.33333333 24.9244584,2.29166667 21.2110168,2.29166667 C17.4572118,2.29166667 14.3895861,5.35416667 14.3895861,9.4375 C14.3895861,13.6458333 17.4572118,16.8125 21.2110168,16.8125 Z" id="Shape"></path>
                        <path d="M10.4339636,0.3125 C7.68924588,0.3125 5.73161635,2.39583333 4.90416469,5.125 L4.84361945,5.125 C4.84361945,5.125 4.90416469,4.52083333 4.90416469,3.75 L4.90416469,2.52083333 C4.90416469,1.08333333 4.23816702,0.479166667 2.78508118,0.479166667 L1.21090486,0.479166667 L1.21090486,0.479166667 C1.21090486,0.479166667 1.21090486,0.479166667 1.21090486,0.479166667 C0.645815927,0.479166667 0.181635729,0.958333333 0.181635729,1.54166667 C0.181635729,2.125 0.645815927,2.60416667 1.21090486,2.60416667 C1.21090486,2.60416667 1.21090486,2.60416667 1.21090486,2.60416667 L1.21090486,2.60416667 L1.79617555,2.60416667 C2.28053749,2.60416667 2.56308196,2.89583333 2.56308196,3.39583333 L2.56308196,17.3333333 C2.56308196,18 3.0878074,18.5625 3.75380507,18.5625 C4.399621,18.5625 4.94452819,18.0208333 4.94452819,17.3333333 L4.94452819,10.9375 C4.94452819,9.79166667 5.08580042,8.5625 5.42889013,7.41666667 C6.19579655,4.79166667 8.01215384,2.79166667 10.4339636,2.75 C11.0797795,2.75 11.6246867,2.20833333 11.6246867,1.52083333 C11.6045049,0.875 11.0797795,0.3125 10.4339636,0.3125 Z" id="Path"></path>
                    </g>
                    <g transform="translate(32.492614, 4.791667)" fill="#43434C">
                        <path d="M3.47126061,3.39583333 C3.47126061,2.875 3.18871614,2.58333333 2.68417244,2.58333333 L1.19072311,2.58333333 L1.19072311,0.4375 L3.67307808,0.4375 C5.16652741,0.4375 5.83252509,1.10416667 5.83252509,2.47916667 L5.83252509,3.3125 C5.83252509,4.04166667 5.7517981,4.625 5.7517981,4.625 L5.83252509,4.625 C6.47834101,2.9375 8.73869676,-1.42108547e-14 12.8961368,-1.42108547e-14 C17.3159395,-1.42108547e-14 18.8699341,2.58333333 18.8699341,7.125 L18.8699341,15.8333333 C18.8699341,16.375 19.1524786,16.6458333 19.6570223,16.6458333 L21.1504716,16.6458333 L21.1504716,18.7916667 L18.6479349,18.7916667 C17.1343038,18.7916667 16.4884879,18.125 16.4884879,16.5625 L16.4884879,7.77083333 C16.4884879,4.89583333 16.0646712,2.33333333 12.6337741,2.33333333 C9.58633016,2.33333333 6.98288471,4.47916667 6.15543305,7.52083333 C5.93343383,8.29166667 5.87288858,9.125 5.87288858,10 L5.87288858,18.1666667 L3.47126061,18.1666667 L3.47126061,3.39583333 L3.47126061,3.39583333 Z" id="Path"></path>
                        <ellipse id="Oval" cx="4.66198372" cy="18.0625" rx="1.21090486" ry="1.25"></ellipse>
                        <ellipse id="Oval" cx="1.17054137" cy="1.52083333" rx="1.04945088" ry="1.08333333"></ellipse>
                        <ellipse id="Oval" cx="21.0293811" cy="17.7083333" rx="1.04945088" ry="1.08333333"></ellipse>
                    </g>
                </g>
            </g>
        </g>
    </g>
</svg>