<?xml version="1.0" encoding="UTF-8"?>
<svg width="37px" height="37px" viewBox="0 0 37 37" version="1.1" xmlns="http://www.w3.org/2000/svg" xmlns:xlink="http://www.w3.org/1999/xlink">
    <!-- Generator: Sketch 54.1 (76490) - https://sketchapp.com -->
    <title>Group</title>
    <desc>Created with Sketch.</desc>
    <g id="Symbols" stroke="none" stroke-width="1" fill="none" fill-rule="evenodd">
        <g id="multi-colores-v1" transform="translate(-28.000000, -12.000000)" fill-rule="nonzero">
            <g id="logo_horizaontal-05" transform="translate(28.000000, 12.000000)">
                <g id="Group">
                    <ellipse id="Oval" fill="#E63976" transform="translate(18.463725, 18.507229) rotate(-89.813888) translate(-18.463725, -18.507229) " cx="18.4637251" cy="18.5072285" rx="18.2574744" ry="18.3577881"></ellipse>
                    <g transform="translate(6.708791, 7.885246)" fill="#FAF7F5">
                        <path d="M18.5203297,6.49016393 C18.2967033,2.97213115 15.3489011,0.181967213 11.7505495,0.181967213 C8.1521978,0.181967213 5.2043956,2.97213115 4.98076923,6.49016393 L4.98076923,9.98797814 L4.98076923,11.0797814 C4.98076923,11.6459016 5.44835165,12.1311475 6.03791209,12.1311475 C6.60714286,12.1311475 7.09505495,11.6661202 7.09505495,11.0797814 L7.09505495,9.98797814 L7.09505495,6.93497268 C7.09505495,4.36721311 9.18901099,2.28469945 11.7708791,2.28469945 C14.3527473,2.28469945 16.4467033,4.36721311 16.4467033,6.93497268 L16.4467033,6.93497268 L16.4467033,9.98797814 L16.4467033,11.0797814 C16.4467033,11.6459016 16.9142857,12.1311475 17.5038462,12.1311475 C18.0730769,12.1311475 18.560989,11.6661202 18.560989,11.0797814 L18.560989,9.98797814 L18.560989,6.49016393 L18.5203297,6.49016393 Z" id="Path"></path>
                        <g transform="translate(0.000000, 9.300546)">
                            <path d="M23.3181319,0.889617486 C23.3181319,0.404371585 22.9115385,0 22.4236264,0 L20.7159341,0 C20.289011,0 19.9230769,0.283060109 19.8417582,0.707650273 L18.1340659,8.77486339 C18.0730769,9.07814208 17.7071429,9.36120219 17.4021978,9.36120219 L6.0989011,9.36120219 C5.79395604,9.36120219 5.42802198,9.07814208 5.36703297,8.77486339 L3.65934066,0.707650273 C3.57802198,0.303278689 3.21208791,0 2.78516484,0 L1.07747253,0 C0.58956044,0 0.182967033,0.404371585 0.182967033,0.889617486 C0.182967033,1.37486339 0.58956044,1.77923497 1.07747253,1.77923497 L1.87032967,1.77923497 C1.97197802,1.77923497 2.07362637,1.86010929 2.09395604,1.96120219 L3.61868132,9.13879781 C3.86263736,10.2710383 4.94010989,11.1404372 6.0989011,11.1404372 L17.4021978,11.1404372 C18.560989,11.1404372 19.6384615,10.2710383 19.8824176,9.13879781 L21.4071429,1.96120219 C21.4274725,1.86010929 21.5291209,1.77923497 21.6307692,1.77923497 L22.4236264,1.77923497 C22.9115385,1.77923497 23.3181319,1.37486339 23.3181319,0.889617486 Z" id="Path"></path>
                            <rect id="Rectangle" x="8.1521978" y="0" width="7.21703297" height="1.77923497"></rect>
                            <path d="M16.467033,4.12459016 C16.467033,4.12459016 16.467033,4.10437158 16.467033,4.10437158 C16.467033,3.8010929 16.2230769,3.55846995 15.9181319,3.55846995 C15.6131868,3.55846995 15.3692308,3.8010929 15.3692308,4.10437158 C15.3692308,4.10437158 15.3692308,4.12459016 15.3692308,4.12459016 L15.3692308,7.05628415 C15.3692308,7.05628415 15.3692308,7.07650273 15.3692308,7.07650273 C15.3692308,7.37978142 15.6131868,7.62240437 15.9181319,7.62240437 C16.2230769,7.62240437 16.467033,7.37978142 16.467033,7.07650273 C16.467033,7.07650273 16.467033,7.05628415 16.467033,7.05628415 L16.467033,4.12459016 Z" id="Path"></path>
                            <path d="M13.6818681,4.12459016 C13.6818681,4.12459016 13.6818681,4.10437158 13.6818681,4.10437158 C13.6818681,3.8010929 13.4379121,3.55846995 13.132967,3.55846995 C12.828022,3.55846995 12.5840659,3.8010929 12.5840659,4.10437158 C12.5840659,4.10437158 12.5840659,4.12459016 12.5840659,4.12459016 L12.5840659,7.05628415 C12.5840659,7.05628415 12.5840659,7.07650273 12.5840659,7.07650273 C12.5840659,7.37978142 12.828022,7.62240437 13.132967,7.62240437 C13.4379121,7.62240437 13.6818681,7.37978142 13.6818681,7.07650273 C13.6818681,7.07650273 13.6818681,7.05628415 13.6818681,7.05628415 L13.6818681,4.12459016 Z" id="Path"></path>
                            <path d="M10.917033,4.12459016 C10.917033,4.12459016 10.917033,4.10437158 10.917033,4.10437158 C10.917033,3.8010929 10.6730769,3.55846995 10.3681319,3.55846995 C10.0631868,3.55846995 9.81923077,3.8010929 9.81923077,4.10437158 C9.81923077,4.10437158 9.81923077,4.12459016 9.81923077,4.12459016 L9.81923077,7.05628415 C9.81923077,7.05628415 9.81923077,7.07650273 9.81923077,7.07650273 C9.81923077,7.37978142 10.0631868,7.62240437 10.3681319,7.62240437 C10.6730769,7.62240437 10.917033,7.37978142 10.917033,7.07650273 C10.917033,7.07650273 10.917033,7.05628415 10.917033,7.05628415 L10.917033,4.12459016 Z" id="Path"></path>
                            <path d="M8.1521978,4.12459016 C8.1521978,4.12459016 8.1521978,4.10437158 8.1521978,4.10437158 C8.1521978,3.8010929 7.90824176,3.55846995 7.6032967,3.55846995 C7.29835165,3.55846995 7.0543956,3.8010929 7.0543956,4.10437158 C7.0543956,4.10437158 7.0543956,4.12459016 7.0543956,4.12459016 L7.0543956,7.05628415 C7.0543956,7.05628415 7.0543956,7.07650273 7.0543956,7.07650273 C7.0543956,7.37978142 7.29835165,7.62240437 7.6032967,7.62240437 C7.90824176,7.62240437 8.1521978,7.37978142 8.1521978,7.07650273 C8.1521978,7.07650273 8.1521978,7.05628415 8.1521978,7.05628415 L8.1521978,4.12459016 Z" id="Path"></path>
                        </g>
                    </g>
                </g>
            </g>
        </g>
    </g>
</svg>